<?xml version="1.0" encoding="utf-8"?>
<!-- Generator: Adobe Illustrator 26.0.2, SVG Export Plug-In . SVG Version: 6.00 Build 0)  -->
<svg version="1.1" id="Layer_1" xmlns="http://www.w3.org/2000/svg" xmlns:xlink="http://www.w3.org/1999/xlink" x="0px" y="0px"
	 viewBox="0 0 2683 482" style="enable-background:new 0 0 2683 482;" xml:space="preserve">
<style type="text/css">
	.st0{fill:#FFFFFF;}
</style>
<g>
	<path class="st0" d="M1025.24,44.78V11.9h105.45v43.38h-9.06L1025.24,44.78z M1139.75,432.89l96.39,10.5v32.88h-210.9v-32.88
		l96.4-10.5H1139.75z M1085.32,228.9c0-72.1,0-144.9-2.1-217h93.92c-2.1,72.03-2.1,142.17-2.1,221.43v21.26
		c0,76.79,0,149.59,2.1,221.69h-93.92c2.1-70.7,2.1-143.5,2.1-217V228.9z M1131.2,226.75h84.93c72.52,0,101.21-40.6,101.21-91.39
		c0-57.52-30.99-87.15-95.82-87.15h-90.83V11.9h105.66c108.64,0,170.61,44.47,170.61,119.6c0,56.42-43.3,110.83-151.45,118.02
		l1.33-6.37c80.97,4.13,110.23,33.91,125.79,103.08l26.33,105.09l-39.94-24.86l88.8,9.94v32.88c-23.13,6-37.11,8.54-63.76,8.54
		c-51.62,0-78.74-14.28-86.37-57.79l-20.74-90.4c-10.4-51.82-31.93-67.53-81.81-67.53h-73.95V226.75z"/>
	<path class="st0" d="M1480.45,49.21l41.26-37.31l-20.34,127.43h-48.96l4.06-127.43h396.84l3.8,127.43h-48.71L1788.06,11.9
		l41.01,37.31H1480.45z M1665.61,432.89l101.85,10.5v32.88h-225.16v-32.88l100.83-10.5H1665.61z M1609.38,228.9
		c0-72.1,0-144.9-2.1-217h94.95c-2.1,70.7-2.1,143.5-2.1,217v30.12c0,72.36,0,145.16,2.1,217.26h-94.95c2.1-70.7,2.1-143.5,2.1-217
		V228.9z"/>
	<path class="st0" d="M1898.13,44.78V11.9h213.73v32.88l-97.42,10.5h-19.91L1898.13,44.78z M2003.58,432.89v43.38h-105.45v-32.88
		l96.4-10.5H2003.58z M1956.11,11.9h94.95c-2.1,71.59-2.1,144.39-2.1,217v42.83c0,60.53,0,133.33,2.1,204.54h-94.95
		c2.1-71.59,2.1-144.39,2.1-209.55V228.9C1958.21,155.91,1958.21,83.11,1956.11,11.9z M2260.48,341.85l-7,134.43h-249.9v-37.57
		h225.91l-45.95,37.57l27.74-134.43H2260.48z"/>
	<path class="st0" d="M2301.34,44.78V11.9h105.45v43.38h-9.06L2301.34,44.78z M2406.79,432.89v43.38h-105.45v-32.88l96.4-10.5
		H2406.79z M2361.41,228.9c0-72.1,0-144.9-2.1-217h94.95c-2.1,70.7-2.1,143.5-2.1,217v24.8c0,77.67,0,150.47,2.1,222.57h-94.95
		c2.1-70.7,2.1-143.5,2.1-217V228.9z M2588.87,11.9l41.26,37.31h-223.34V11.9h247.33l4.9,122.54h-48.96L2588.87,11.9z
		 M2562.93,256.32h-156.14v-36.82h156.14V256.32z M2673.02,353.73l-4.9,122.54h-261.33v-37.06h237.34l-41.26,37.06l21.19-122.54
		H2673.02z M2541.05,229.06l10.5-70.6h36.12v158.19h-36.12l-10.5-74.1V229.06z"/>
</g>
<g>
	<g>
		<path class="st0" d="M9.63,44.78V11.9h105.45v43.38h-9.05L9.63,44.78z M129.27,432.89l96.4,10.5v32.88H9.63v-32.88l96.4-10.5
			H129.27z M69.7,228.9c0-72.1,0-144.9-2.1-217h94.95c-2.1,70.7-2.1,143.5-2.1,217v42.7c0,64.21,0,132.57,2.1,204.67H67.6
			c2.1-70.7,2.1-143.5,2.1-217V228.9z M189,295.66h-73.92v-35.8h79.54c73.77,0,105.83-44.21,105.83-109.43
			c0-66.1-36-102.22-108.62-102.22h-76.74V11.9h83.88c131.36,0,190.09,56.12,190.09,138.79C389.04,229.86,336.43,295.66,189,295.66z
			"/>
	</g>
</g>
<g>
	<path class="st0" d="M826.12,40.28C789.84,19.34,749.35,8.86,708.87,8.86S627.9,19.34,591.62,40.28
		c-36.28,20.94-65.59,50.77-85.84,85.83c-20.24,35.06-31.41,75.36-31.41,117.25s11.17,82.19,31.41,117.25
		c20.25,35.06,49.56,64.89,85.84,85.83c36.28,20.95,76.77,31.42,117.25,31.42s80.97-10.47,117.25-31.42
		c36.28-20.94,65.59-50.77,85.84-85.83c20.24-35.06,31.41-75.36,31.41-117.25C943.37,159.58,898.68,82.17,826.12,40.28z
		 M847.86,301.06c0,13.95-7.44,26.84-19.52,33.82l-50.17,28.97c-73.82,7.66-118.23-27.72-118-26.13
		c3.34,22.36,37.4,44.18,70.17,53.74l-1.94,1.12c-12.09,6.98-26.97,6.98-39.06,0l-99.94-57.7c-12.08-6.98-19.52-19.87-19.52-33.82
		v-57.95C600.15,175.36,653,154.59,651.5,154c-21.03-8.29-56.95,10.28-81.62,33.88v-2.22c0-13.95,7.44-26.85,19.52-33.82l99.94-57.7
		c12.09-6.98,26.97-6.98,39.06,0l50.15,28.95c43.57,60.09,35.12,116.26,36.39,115.26c17.7-14.07,19.56-54.48,11.45-87.64l1.95,1.13
		c12.08,6.97,19.52,19.87,19.52,33.82V301.06z"/>
</g>
</svg>
