<?xml version="1.0" encoding="utf-8"?>
<!-- Generator: Adobe Illustrator 26.0.2, SVG Export Plug-In . SVG Version: 6.00 Build 0)  -->
<svg version="1.1" id="Layer_1" xmlns="http://www.w3.org/2000/svg" xmlns:xlink="http://www.w3.org/1999/xlink" x="0px" y="0px"
	 viewBox="0 0 398 78" style="enable-background:new 0 0 398 78;" xml:space="preserve">
<style type="text/css">
	.st0{fill:#FFFFFF;}
	.st1{fill:#5B4E84;stroke:#0D4E56;stroke-width:75;stroke-miterlimit:10;}
</style>
<g>
	<path class="st0" d="M142.6,8.1v-5h16.2v6.7h-1.4L142.6,8.1z M160.1,67.7l14.8,1.6v5h-32.4v-5l14.8-1.6H160.1z M151.8,36.4
		c0-11.1,0-22.2-0.3-33.3h14.4c-0.3,11.1-0.3,21.8-0.3,34v3.3c0,11.8,0,23,0.3,34h-14.4c0.3-10.9,0.3-22,0.3-33.3V36.4z M158.8,36
		h13c11.1,0,15.5-6.2,15.5-14c0-8.8-4.8-13.4-14.7-13.4h-13.9V3H175c16.7,0,26.2,6.8,26.2,18.4c0,8.7-6.6,17-23.3,18.1l0.2-1
		c12.4,0.6,16.9,5.2,19.3,15.8l4,16.1l-6.1-3.8l13.6,1.5v5c-3.6,0.9-5.7,1.3-9.8,1.3c-7.9,0-12.1-2.2-13.3-8.9l-3.2-13.9
		c-1.6-8-4.9-10.4-12.6-10.4h-11.4L158.8,36L158.8,36z"/>
	<path class="st0" d="M212.5,8.8l6.3-5.7l-3.1,19.6h-7.5l0.6-19.6h60.9l0.6,19.6h-7.5l-3.1-19.6l6.3,5.7H212.5z M240.9,67.7
		l15.6,1.6v5h-34.6v-5l15.5-1.6H240.9z M232.2,36.4c0-11.1,0-22.2-0.3-33.3h14.6c-0.3,10.9-0.3,22-0.3,33.3V41
		c0,11.1,0,22.3,0.3,33.4h-14.6c0.3-10.9,0.3-22,0.3-33.3V36.4z"/>
	<path class="st0" d="M276.6,8.1v-5h32.8v5l-15,1.6h-3.1L276.6,8.1z M292.8,67.7v6.7h-16.2v-5l14.8-1.6h1.4V67.7z M285.5,3.1h14.6
		c-0.3,11-0.3,22.2-0.3,33.3V43c0,9.3,0,20.5,0.3,31.4h-14.6c0.3-11,0.3-22.2,0.3-32.2v-5.8C285.8,25.2,285.8,14,285.5,3.1z
		 M332.2,53.7l-1.1,20.6h-38.4v-5.8h34.7l-7.1,5.8l4.3-20.6H332.2z"/>
	<path class="st0" d="M338.5,8.1v-5h16.2v6.7h-1.4L338.5,8.1z M354.7,67.7v6.7h-16.2v-5l14.8-1.6h1.4V67.7z M347.7,36.4
		c0-11.1,0-22.2-0.3-33.3H362c-0.3,10.9-0.3,22-0.3,33.3v3.8c0,11.9,0,23.1,0.3,34.2h-14.6c0.3-10.9,0.3-22,0.3-33.3V36.4z
		 M382.6,3.1l6.3,5.7h-34.3V3.1h38l0.8,18.8h-7.5L382.6,3.1z M378.6,40.6h-24v-5.7h24V40.6z M395.5,55.5l-0.8,18.8h-40.1v-5.7H391
		l-6.3,5.7l3.3-18.8H395.5z M375.3,36.4l1.6-10.8h5.5v24.3h-5.5l-1.6-11.4V36.4z"/>
</g>
<g>
	<path class="st0" d="M2.5,8.4v-5h16.2v6.7h-1.4L2.5,8.4z M20.8,68l14.8,1.6v5H2.4v-5L17.2,68H20.8z M11.7,36.7
		c0-11.1,0-22.2-0.3-33.3H26c-0.3,10.9-0.3,22-0.3,33.3v6.6c0,9.9,0,20.4,0.3,31.4H11.4c0.3-10.9,0.3-22,0.3-33.3V36.7z M30,46.9
		H18.7v-5.5h12.2c11.3,0,16.2-6.8,16.2-16.8c0-10.1-5.5-15.7-16.7-15.7H18.6V3.3h12.9c20.2,0,29.2,8.6,29.2,21.3
		C60.7,36.8,52.6,46.9,30,46.9z"/>
</g>
<g>
	<path class="st0" d="M122.4,7.8c-5.6-3.2-11.8-4.8-18-4.8S92,4.6,86.4,7.8C80.8,11,76.3,15.6,73.2,21c-3.1,5.4-4.8,11.6-4.8,18
		s1.7,12.6,4.8,18c3.1,5.4,7.6,10,13.2,13.2s11.8,4.8,18,4.8s12.4-1.6,18-4.8c5.6-3.2,10.1-7.8,13.2-13.2c3.1-5.4,4.8-11.6,4.8-18
		C140.4,26.1,133.6,14.3,122.4,7.8z M125.8,47.9c0,2.1-1.1,4.1-3,5.2l-7.7,4.4c-11.3,1.2-23.2-12-23.3-11.8
		c-1.3,2.7,10.9,14.6,15.9,16l-0.3,0.2c-1.9,1.1-4.1,1.1-6,0L86.1,53c-1.9-1.1-3-3.1-3-5.2V39c4.6-10.4,22-14.1,21.9-14.2
		c-1.7-2.5-18.1,2.1-21.9,5.8v-0.3c0-2.1,1.1-4.1,3-5.2l15.3-8.9c1.9-1.1,4.1-1.1,6,0l7.7,4.4c6.7,9.2,1.2,26.1,1.4,26.1
		c3-0.2,7.2-16.7,5.9-21.8l0.3,0.2c1.9,1.1,3,3.1,3,5.2L125.8,47.9L125.8,47.9z"/>
</g>
<path class="st1" d="M94,39"/>
</svg>
